<svg width="434" height="79" viewBox="0 0 434 79" fill="none" xmlns="http://www.w3.org/2000/svg">
<g clip-path="url(#clip0_611_138)">
<path d="M151.025 63.2451L147.667 53.3158H129.131C128.621 54.8494 128.079 56.5222 127.522 58.3192L125.99 63.2451H117.001L133.603 17.2236H143.242L159.411 63.2451H151.025ZM138.368 27.2302C137.254 30.3594 136.171 33.3799 135.15 36.3231C134.129 39.2661 132.999 42.3797 131.792 45.6945H145.006L138.368 27.2302Z" fill="black"/>
<path d="M186.38 17.3779H169.469V63.3529H177.282V47.6924H186.38C195.648 47.6924 200.151 43.7888 200.151 35.7493V29.2434C200.151 21.2505 195.648 17.3779 186.38 17.3779ZM177.282 24.6118H186.195C191.486 24.6118 192.337 26.0059 192.337 29.3209V35.7648C192.337 39.0177 191.455 40.4737 186.195 40.4737H177.282V24.6118Z" fill="black"/>
<path d="M226.095 17.3779H209.184V63.3529H216.997V47.6924H226.095C235.363 47.6924 239.865 43.7888 239.865 35.7493V29.2434C239.865 21.2505 235.363 17.3779 226.095 17.3779ZM216.997 24.6118H225.909C231.201 24.6118 232.052 26.0059 232.052 29.3209V35.7648C232.052 39.0177 231.17 40.4737 225.909 40.4737H216.997V24.6118Z" fill="black"/>
<path d="M262.986 58.7535H284.198V63.3543H258.357V17.4258H262.986V58.7535Z" fill="black"/>
<path d="M324.827 49.9837C324.827 57.6359 320.077 63.925 308.224 63.925C296.372 63.925 291.623 57.6514 291.623 49.9837V30.528C291.623 22.8759 296.372 16.5869 308.224 16.5869C320.077 16.5869 324.827 22.8605 324.827 30.528V49.9837ZM295.924 50.0457C295.924 56.6447 299.945 60.3468 308.394 60.3468C316.842 60.3468 320.849 56.6447 320.849 50.0457V30.4661C320.849 23.8673 316.827 20.1651 308.394 20.1651C299.945 20.1651 295.924 23.8673 295.924 30.4661V50.0457Z" fill="black"/>
<path d="M331.867 17.4258H336.464L351.301 58.7535L366.17 17.4258H370.873L354.378 63.3696H348.283L331.867 17.4258Z" fill="black"/>
<path d="M385.108 63.3696H380.482V17.4258H385.108V63.3696Z" fill="black"/>
<path d="M407.281 22.9558V63.3696H402.931V17.4258H409.754L429.73 56.7398V17.4258H434.078V63.3696H428.554L407.281 22.9558Z" fill="black"/>
<path d="M82.3437 57.3018C76.6033 57.3018 71.9307 61.9798 71.9307 67.7265C71.9307 73.4736 76.6033 78.1516 82.3437 78.1516C88.0838 78.1516 92.7565 73.4736 92.7565 67.7265C92.7565 61.9951 88.0838 57.3018 82.3437 57.3018ZM88.5016 67.7421C88.5016 71.15 85.7321 73.9071 82.3437 73.9071C78.9398 73.9071 76.1856 71.1344 76.1856 67.7421C76.1856 64.3342 78.9551 61.5769 82.3437 61.5769C85.7321 61.5769 88.5016 64.3342 88.5016 67.7421Z" fill="black"/>
<path d="M11.8045 57.3018C6.06424 57.3018 1.3916 61.9798 1.3916 67.7265C1.3916 73.4736 6.06424 78.1516 11.8045 78.1516C17.5448 78.1516 22.2174 73.4736 22.2174 67.7265C22.2174 61.9951 17.5448 57.3018 11.8045 57.3018ZM17.9625 67.7421C17.9625 71.15 15.193 73.9071 11.8045 73.9071C8.4006 73.9071 5.6465 71.1344 5.6465 67.7421C5.6465 64.3342 8.41606 61.5769 11.8045 61.5769C15.193 61.5769 17.9625 64.3342 17.9625 67.7421Z" fill="black"/>
<path d="M47.0642 0.173828C41.324 0.173828 36.6514 4.85186 36.6514 10.5987C36.6514 16.3456 41.324 21.0236 47.0642 21.0236C52.8046 21.0236 57.4772 16.3456 57.4772 10.5987C57.4772 4.85186 52.8046 0.173828 47.0642 0.173828ZM53.2223 10.6142C53.2223 14.0221 50.4526 16.7793 47.0642 16.7793C43.6602 16.7793 40.9063 14.0066 40.9063 10.6142C40.9063 7.20638 43.6758 4.44906 47.0642 4.44906C50.4681 4.43363 53.2223 7.20638 53.2223 10.6142Z" fill="black"/>
<path d="M78.4932 58.457L55.4858 16.9897L55.2692 16.5869L54.9751 16.9432C54.186 17.9346 53.2114 18.7246 52.1129 19.3287L51.8342 19.4836L51.9891 19.7624L72.3506 56.4741C65.2488 54.8788 56.4142 54.0113 47.3628 54.0113C37.383 54.0113 28.5173 54.8632 21.6477 56.4588L42.0093 19.7624L42.1642 19.4836L41.8855 19.3287C40.7714 18.7401 39.8122 17.9346 39.0231 16.9432L38.7292 16.5869L38.5127 16.9897L15.5206 58.457L15.335 58.7821L15.6754 58.9061C16.8048 59.2934 17.8415 60.7031 18.7544 61.5084L18.9091 61.6478L19.0948 61.555L19.1721 61.5395C26.5059 59.5102 36.2692 58.4259 47.3783 58.4259C57.3734 58.4259 67.0745 59.5257 74.7179 61.5239L74.8727 61.8182L75.1667 61.5859L75.2286 61.5395C76.1567 60.7186 77.1934 59.309 78.323 58.9216L78.6633 58.7977L78.4932 58.457Z" fill="black"/>
</g>
<defs>
<clipPath id="clip0_611_138">
<rect width="434" height="79" fill="white"/>
</clipPath>
</defs>
</svg>
